<svg width="128" height="128" viewBox="0 0 128 128" fill="none" xmlns="http://www.w3.org/2000/svg">
<path d="M53.432 4C86.8828 4 114 30.8629 114 64C114 97.1371 86.8828 124 53.432 124H14L14.8603 105.051C30.3788 85.7792 64.1537 71.2271 65.0136 74.4356C65.9118 77.7872 64.829 80.8594 64.1754 81.9766C70.2098 78.4935 81.776 77.7323 86.8046 77.7871C86.8046 73.7651 91.8332 68.8492 94.3475 66.8941C94.9062 63.8217 93.1738 57.6774 81.7758 57.6773C70.3776 57.6773 54.1185 38.6848 47.4136 29.1885C45.617 35.8917 48.3411 41.4778 49.9277 43.4329C41.2114 43.4329 31.2102 28.3505 27.299 20.8093C27.299 36.2267 33.4448 46.2258 36.5178 49.2982C32.8673 50.2762 23.245 53.8038 16.8014 62.2964L19.4486 4H53.432Z" fill="#316BFF"/>
<path d="M14.8603 105.051C30.3788 85.7792 64.1537 71.2271 65.0136 74.4356C65.9118 77.7872 64.829 80.8594 64.1754 81.9766C70.2098 78.4935 81.776 77.7323 86.8046 77.7871C86.8046 73.7651 91.8332 68.8492 94.3475 66.8941C94.9062 63.8217 93.1738 57.6774 81.7758 57.6773C70.3776 57.6773 54.1185 38.6848 47.4136 29.1885C45.617 35.8917 48.3411 41.4778 49.9277 43.4329C41.2114 43.4329 31.2102 28.3505 27.299 20.8093C27.299 36.2267 33.4448 46.2258 36.5178 49.2982C32.8673 50.2762 23.245 53.8038 16.8014 62.2964L14.8603 105.051Z" fill="white"/>
</svg>
